<svg width="87" height="87" viewBox="0 0 87 87" fill="none" xmlns="http://www.w3.org/2000/svg">
<path d="M23.0436 17.1816H17.443C17.1865 17.1816 16.9727 17.3955 16.9727 17.5659V30.9902H23.514V23.423C30.9525 23.0387 36.467 26.159 36.467 34.2817C36.467 44.8413 27.661 45.269 23.514 45.0978V37.5741H16.9727V50.9975C16.9727 51.1687 17.1865 51.3826 17.443 51.3826H23.0436C31.5506 51.3826 43.0509 48.9031 43.0509 34.2817C43.0509 19.1056 31.3802 17.1816 23.0436 17.1816Z" fill="#E71A6D"/>
<path d="M62.4823 48.4019C59.962 47.2083 57.4861 47.2083 57.265 47.2083C55.0102 47.2083 52.8434 45.8816 52.8434 43.3178C52.8434 40.4876 54.8335 39.0285 57.265 39.0285C59.5641 39.0285 61.5099 40.223 61.5978 42.7423C61.5978 42.8755 61.8189 43.0967 62.0844 43.0967H67.6107C67.9207 43.0967 68.1418 42.8755 68.0974 42.7423C68.0095 36.7294 63.3224 32.6621 57.265 32.6621C51.6055 32.6621 46.2559 36.6859 46.2559 43.3178C46.2559 47.4295 48.3339 50.5687 52.0033 52.2489C54.568 53.4424 56.956 53.4424 57.265 53.4424C59.2551 53.5312 61.6866 55.1226 61.6866 57.7308C61.6866 60.0744 59.6085 61.6666 57.265 61.6666C57.265 61.6666 57.265 61.6666 57.2206 61.6666V68.033C57.265 68.033 57.265 68.033 57.265 68.033C62.9245 68.033 68.2297 64.3636 68.2297 57.7308C68.2297 53.5747 66.1961 50.1265 62.4823 48.4019Z" fill="#E71A6D"/>
<path d="M18.6296 60.5958H17.5747V57.5762H18.6296C18.9359 57.5762 19.1806 57.6034 19.3618 57.6559C19.5431 57.7067 19.6881 57.7882 19.7968 57.8988C19.9056 58.013 19.9853 58.1652 20.0361 58.3555C20.0868 58.5468 20.1122 58.7896 20.1122 59.0842C20.1122 59.6062 19.9944 59.9895 19.7606 60.2333C19.5259 60.4753 19.1489 60.5958 18.6296 60.5958ZM19.2205 58.4425C19.1742 58.3755 19.1081 58.3265 19.0211 58.2975C18.9359 58.2667 18.8054 58.2504 18.6296 58.2504H18.3215V59.8962H18.6296C18.8009 59.8962 18.9305 59.8835 19.0175 59.8563C19.1045 59.8273 19.1715 59.7802 19.2205 59.7149C19.2612 59.6551 19.2911 59.5735 19.3111 59.472C19.3301 59.3705 19.3401 59.2419 19.3401 59.0842C19.3401 58.9247 19.3301 58.7942 19.3111 58.6927C19.2911 58.5912 19.2612 58.5078 19.2205 58.4425Z" fill="#E71A6D"/>
<path d="M24.9179 59.3234V57.5762H25.6646V59.3234C25.6646 59.7639 25.5568 60.0937 25.342 60.313C25.1263 60.5333 24.8037 60.6429 24.3741 60.6429C23.9192 60.6429 23.5884 60.5396 23.3809 60.3312C23.1752 60.1236 23.0728 59.7874 23.0728 59.3234V57.5762H23.8195V59.3234C23.8195 59.5681 23.8567 59.733 23.9319 59.82C24.0062 59.9052 24.1539 59.9469 24.3741 59.9469C24.5889 59.9469 24.733 59.9052 24.8055 59.82C24.8798 59.733 24.9179 59.5681 24.9179 59.3234Z" fill="#E71A6D"/>
<path d="M29.4738 57.5762V60.5958H28.7271V57.5762H29.4738Z" fill="#E71A6D"/>
<path d="M34.7787 57.5762V58.2504H33.9559V60.5958H33.2091V58.2504H32.3862V57.5762H34.7787Z" fill="#E71A6D"/>
<path d="M18.7204 66.0155L18.1078 65.8705C17.8631 65.8153 17.6964 65.7283 17.6076 65.6095C17.5206 65.489 17.4771 65.3186 17.4771 65.0984C17.4771 64.7486 17.5686 64.4912 17.7526 64.3263C17.9383 64.1595 18.2256 64.0762 18.6153 64.0762C18.7748 64.0762 18.9171 64.0834 19.0431 64.0979C19.1681 64.1106 19.2832 64.1324 19.3874 64.1632V64.8338C19.1427 64.7903 18.9751 64.7667 18.8836 64.7613C18.7938 64.754 18.6996 64.7504 18.6008 64.7504C18.4649 64.7504 18.3661 64.774 18.3036 64.8193C18.2428 64.8628 18.2129 64.938 18.2129 65.044C18.2129 65.0948 18.222 65.1347 18.2419 65.1637C18.261 65.1909 18.2981 65.2099 18.3543 65.2217L18.9307 65.3558C19.0974 65.3948 19.2171 65.4337 19.2896 65.4718C19.3639 65.508 19.4246 65.5552 19.4708 65.6132C19.5216 65.6739 19.5587 65.7527 19.5832 65.8488C19.6067 65.9458 19.6194 66.0627 19.6194 66.2004C19.6194 66.5484 19.5261 66.8013 19.3403 66.958C19.1536 67.113 18.8654 67.19 18.4739 67.19C18.2755 67.19 18.0861 67.1774 17.9048 67.1538C17.7254 67.1302 17.5867 67.1012 17.4879 67.0668V66.3599C17.6157 66.4016 17.768 66.4342 17.9447 66.4578C18.1205 66.4823 18.2972 66.494 18.4739 66.494C18.6162 66.494 18.7141 66.4777 18.7676 66.4433C18.8228 66.407 18.8509 66.3364 18.8509 66.2294C18.8509 66.1624 18.841 66.1134 18.8219 66.0844C18.8047 66.0536 18.7712 66.03 18.7204 66.0155Z" fill="#E71A6D"/>
<path d="M24.7724 64.123V64.7973H23.9495V67.1427H23.2028V64.7973H22.3799V64.123H24.7724Z" fill="#E71A6D"/>
<path d="M28.2234 67.1427H27.4404L28.5569 64.123H29.3327L30.4202 67.1427H29.6408L29.4813 66.6388H28.3829L28.2234 67.1427ZM28.9267 64.8662C28.9022 64.9559 28.8741 65.051 28.8433 65.1525C28.8143 65.254 28.7636 65.419 28.6911 65.6455L28.5678 66.0443H29.2928L29.1696 65.6455C29.1279 65.525 29.0862 65.3972 29.0427 65.2613C29.001 65.1235 28.9629 64.9921 28.9267 64.8662Z" fill="#E71A6D"/>
<path d="M34.0197 66.1712V67.1427H33.2729V64.123H34.3749C34.8389 64.123 35.1688 64.2019 35.3646 64.3587C35.5603 64.5164 35.6582 64.7783 35.6582 65.1453C35.6582 65.3918 35.6056 65.5939 35.5023 65.7507C35.3981 65.9056 35.2395 66.018 35.0274 66.0878L35.7669 67.1427H34.8716L34.2444 66.1712H34.0197ZM34.9042 65.1453C34.9042 65.0175 34.8652 64.9278 34.7882 64.877C34.7103 64.8245 34.5725 64.7973 34.3749 64.7973H34.0197V65.5694H34.3749C34.5725 65.5694 34.7103 65.5386 34.7882 65.4752C34.8652 65.4126 34.9042 65.303 34.9042 65.1453Z" fill="#E71A6D"/>
<path d="M40.894 64.123V64.7973H40.0711V67.1427H39.3243V64.7973H38.5015V64.123H40.894Z" fill="#E71A6D"/>
<path d="M45.8857 66.443V67.1427H43.8086V64.123H45.8422V64.7973H44.5553V65.2975H45.6646V65.9247H44.5553V66.443H45.8857Z" fill="#E71A6D"/>
<path d="M49.6115 66.1712V67.1427H48.8647V64.123H49.9667C50.4307 64.123 50.7606 64.2019 50.9564 64.3587C51.1521 64.5164 51.25 64.7783 51.25 65.1453C51.25 65.3918 51.1974 65.5939 51.0941 65.7507C50.9899 65.9056 50.8313 66.018 50.6192 66.0878L51.3587 67.1427H50.4634L49.8362 66.1712H49.6115ZM50.496 65.1453C50.496 65.0175 50.457 64.9278 50.38 64.877C50.3021 64.8245 50.1643 64.7973 49.9667 64.7973H49.6115V65.5694H49.9667C50.1643 65.5694 50.3021 65.5386 50.38 65.4752C50.457 65.4126 50.496 65.303 50.496 65.1453Z" fill="#E71A6D"/>
</svg>
