<svg id="svg" fill="#000000" stroke="#000000" width="200px" height="200px" version="1.1" viewBox="144 144 512 512" xmlns="http://www.w3.org/2000/svg">
    <g id="IconSvg_bgCarrier" stroke-width="0"></g>
    <g id="IconSvg_tracerCarrier" stroke-linecap="round" stroke-linejoin="round" stroke="#CCCCCC"></g>
     <g id="IconSvg_iconCarrier">
      <path xmlns="http://www.w3.org/2000/svg" d="m576.64 269.86-353.3 0.003906c-13.887 0-25.234 11.355-25.234 25.23l0.007813 219.7c0 13.879 11.355 25.234 25.234 25.234h353.29c13.875 0 25.23-11.355 25.23-25.234v-219.7c-0.003906-13.875-11.359-25.23-25.234-25.23zm-252.32 47.559c23.832 0 43.223 19.398 43.223 43.223 0 23.832-19.391 43.223-43.223 43.223-23.832 0-43.227-19.387-43.227-43.223 0-23.824 19.391-43.223 43.227-43.223zm-75.691 172.12c0-41.742 33.957-75.707 75.691-75.707 41.73 0 75.699 33.969 75.703 75.707zm227.23 0h-50.566v-25.242h50.566zm75.66 0h-50.57v-25.242h50.566zm0-93.273h-126.23v-25.23h126.23v25.23zm0-50.488h-126.23v-25.23h126.23v25.23z"></path>

      </g>
      </svg>