<svg width="87" height="87" viewBox="0 0 87 87" fill="none" xmlns="http://www.w3.org/2000/svg">
<g filter="url(#filter0_d_64_1336)">
<path d="M23.0436 17.1812H17.4429C17.1865 17.1812 16.9726 17.395 16.9726 17.5654V30.9897H23.5139V23.4225C30.9524 23.0382 36.4669 26.1585 36.4669 34.2812C36.4669 44.8408 27.6609 45.2686 23.5139 45.0973V37.5736H16.9726V50.997C16.9726 51.1682 17.1865 51.3821 17.4429 51.3821H23.0436C31.5505 51.3821 43.0508 48.9026 43.0508 34.2812C43.0508 19.1051 31.3802 17.1812 23.0436 17.1812Z" fill="white"/>
<path d="M62.4825 48.4019C59.9622 47.2083 57.4863 47.2083 57.2652 47.2083C55.0104 47.2083 52.8436 45.8816 52.8436 43.3178C52.8436 40.4876 54.8337 39.0285 57.2652 39.0285C59.5643 39.0285 61.5101 40.223 61.598 42.7423C61.598 42.8755 61.8191 43.0967 62.0846 43.0967H67.6109C67.9209 43.0967 68.142 42.8755 68.0976 42.7423C68.0097 36.7294 63.3226 32.6621 57.2652 32.6621C51.6057 32.6621 46.2561 36.6859 46.2561 43.3178C46.2561 47.4295 48.3341 50.5687 52.0035 52.2489C54.5682 53.4424 56.9562 53.4424 57.2652 53.4424C59.2553 53.5312 61.6868 55.1226 61.6868 57.7308C61.6868 60.0744 59.6087 61.6666 57.2652 61.6666C57.2652 61.6666 57.2652 61.6666 57.2208 61.6666V68.033C57.2652 68.033 57.2652 68.033 57.2652 68.033C62.9247 68.033 68.2299 64.3636 68.2299 57.7308C68.2299 53.5747 66.1963 50.1265 62.4825 48.4019Z" fill="white"/>
<path d="M18.6297 60.5963H17.5748V57.5767H18.6297C18.936 57.5767 19.1807 57.6038 19.3619 57.6564C19.5432 57.7072 19.6882 57.7887 19.7969 57.8993C19.9057 58.0135 19.9854 58.1657 20.0362 58.356C20.0869 58.5473 20.1123 58.7901 20.1123 59.0847C20.1123 59.6067 19.9945 59.99 19.7607 60.2338C19.526 60.4758 19.149 60.5963 18.6297 60.5963ZM19.2206 58.443C19.1743 58.376 19.1082 58.327 19.0212 58.298C18.936 58.2672 18.8055 58.2509 18.6297 58.2509H18.3216V59.8967H18.6297C18.801 59.8967 18.9306 59.884 19.0176 59.8568C19.1046 59.8278 19.1716 59.7807 19.2206 59.7154C19.2613 59.6556 19.2913 59.574 19.3112 59.4725C19.3302 59.371 19.3402 59.2423 19.3402 59.0847C19.3402 58.9252 19.3302 58.7947 19.3112 58.6932C19.2913 58.5917 19.2613 58.5083 19.2206 58.443Z" fill="white"/>
<path d="M24.9177 59.3239V57.5767H25.6644V59.3239C25.6644 59.7643 25.5566 60.0942 25.3418 60.3135C25.1261 60.5338 24.8035 60.6434 24.3739 60.6434C23.919 60.6434 23.5882 60.5401 23.3807 60.3317C23.175 60.1241 23.0726 59.7879 23.0726 59.3239V57.5767H23.8193V59.3239C23.8193 59.5686 23.8565 59.7335 23.9317 59.8205C24.006 59.9057 24.1537 59.9474 24.3739 59.9474C24.5887 59.9474 24.7328 59.9057 24.8053 59.8205C24.8796 59.7335 24.9177 59.5686 24.9177 59.3239Z" fill="white"/>
<path d="M29.4737 57.5767V60.5963H28.727V57.5767H29.4737Z" fill="white"/>
<path d="M34.7786 57.5767V58.2509H33.9558V60.5963H33.209V58.2509H32.3861V57.5767H34.7786Z" fill="white"/>
<path d="M18.7203 66.0155L18.1077 65.8705C17.863 65.8153 17.6962 65.7283 17.6074 65.6095C17.5204 65.489 17.4769 65.3186 17.4769 65.0984C17.4769 64.7486 17.5685 64.4912 17.7524 64.3263C17.9382 64.1595 18.2255 64.0762 18.6152 64.0762C18.7747 64.0762 18.917 64.0834 19.0429 64.0979C19.168 64.1106 19.2831 64.1324 19.3873 64.1632V64.8338C19.1426 64.7903 18.975 64.7667 18.8834 64.7613C18.7937 64.754 18.6995 64.7504 18.6007 64.7504C18.4647 64.7504 18.366 64.774 18.3034 64.8193C18.2427 64.8628 18.2128 64.938 18.2128 65.044C18.2128 65.0948 18.2219 65.1347 18.2418 65.1637C18.2608 65.1909 18.298 65.2099 18.3542 65.2217L18.9306 65.3558C19.0973 65.3948 19.2169 65.4337 19.2894 65.4718C19.3637 65.508 19.4245 65.5552 19.4707 65.6132C19.5214 65.6739 19.5586 65.7527 19.5831 65.8488C19.6066 65.9458 19.6193 66.0627 19.6193 66.2004C19.6193 66.5484 19.526 66.8013 19.3402 66.958C19.1535 67.113 18.8653 67.19 18.4738 67.19C18.2753 67.19 18.0859 67.1774 17.9047 67.1538C17.7252 67.1302 17.5866 67.1012 17.4878 67.0668V66.3599C17.6156 66.4016 17.7678 66.4342 17.9446 66.4578C18.1204 66.4823 18.2971 66.494 18.4738 66.494C18.6161 66.494 18.714 66.4777 18.7674 66.4433C18.8227 66.407 18.8508 66.3364 18.8508 66.2294C18.8508 66.1624 18.8408 66.1134 18.8218 66.0844C18.8046 66.0536 18.7711 66.03 18.7203 66.0155Z" fill="white"/>
<path d="M24.7724 64.123V64.7973H23.9495V67.1427H23.2027V64.7973H22.3799V64.123H24.7724Z" fill="white"/>
<path d="M28.2235 67.1427H27.4405L28.557 64.123H29.3327L30.4202 67.1427H29.6409L29.4814 66.6388H28.383L28.2235 67.1427ZM28.9267 64.8662C28.9023 64.9559 28.8742 65.051 28.8434 65.1525C28.8144 65.254 28.7636 65.419 28.6911 65.6455L28.5679 66.0443H29.2929L29.1696 65.6455C29.1279 65.525 29.0862 65.3972 29.0427 65.2613C29.0011 65.1235 28.963 64.9921 28.9267 64.8662Z" fill="white"/>
<path d="M34.0195 66.1712V67.1427H33.2727V64.123H34.3747C34.8387 64.123 35.1686 64.2019 35.3643 64.3587C35.5601 64.5164 35.658 64.7783 35.658 65.1453C35.658 65.3918 35.6054 65.5939 35.5021 65.7507C35.3979 65.9056 35.2393 66.018 35.0272 66.0878L35.7667 67.1427H34.8713L34.2442 66.1712H34.0195ZM34.904 65.1453C34.904 65.0175 34.865 64.9278 34.788 64.877C34.71 64.8245 34.5723 64.7973 34.3747 64.7973H34.0195V65.5694H34.3747C34.5723 65.5694 34.71 65.5386 34.788 65.4752C34.865 65.4126 34.904 65.303 34.904 65.1453Z" fill="white"/>
<path d="M40.894 64.123V64.7973H40.0711V67.1427H39.3243V64.7973H38.5015V64.123H40.894Z" fill="white"/>
<path d="M45.8857 66.443V67.1427H43.8086V64.123H45.8422V64.7973H44.5553V65.2975H45.6646V65.9247H44.5553V66.443H45.8857Z" fill="white"/>
<path d="M49.6114 66.1712V67.1427H48.8647V64.123H49.9667C50.4307 64.123 50.7606 64.2019 50.9563 64.3587C51.1521 64.5164 51.2499 64.7783 51.2499 65.1453C51.2499 65.3918 51.1974 65.5939 51.0941 65.7507C50.9898 65.9056 50.8312 66.018 50.6192 66.0878L51.3587 67.1427H50.4633L49.8362 66.1712H49.6114ZM50.4959 65.1453C50.4959 65.0175 50.457 64.9278 50.3799 64.877C50.302 64.8245 50.1642 64.7973 49.9667 64.7973H49.6114V65.5694H49.9667C50.1642 65.5694 50.302 65.5386 50.3799 65.4752C50.457 65.4126 50.4959 65.303 50.4959 65.1453Z" fill="white"/>
</g>
<defs>
<filter id="filter0_d_64_1336" x="-4" y="0" width="95" height="95" filterUnits="userSpaceOnUse" color-interpolation-filters="sRGB">
<feFlood flood-opacity="0" result="BackgroundImageFix"/>
<feColorMatrix in="SourceAlpha" type="matrix" values="0 0 0 0 0 0 0 0 0 0 0 0 0 0 0 0 0 0 127 0" result="hardAlpha"/>
<feOffset dy="4"/>
<feGaussianBlur stdDeviation="2"/>
<feComposite in2="hardAlpha" operator="out"/>
<feColorMatrix type="matrix" values="0 0 0 0 0 0 0 0 0 0 0 0 0 0 0 0 0 0 0.25 0"/>
<feBlend mode="normal" in2="BackgroundImageFix" result="effect1_dropShadow_64_1336"/>
<feBlend mode="normal" in="SourceGraphic" in2="effect1_dropShadow_64_1336" result="shape"/>
</filter>
</defs>
</svg>
